<?xml version="1.0" encoding="UTF-8"?>
<svg xmlns="http://www.w3.org/2000/svg" xmlns:xlink="http://www.w3.org/1999/xlink" viewBox="0 0 32 32" width="32px" height="32px">
<g id="surface90582264">
<path style=" stroke:none;fill-rule:nonzero;fill:rgb(98.823529%,91.764706%,97.647059%);fill-opacity:1;" d="M 16 3 C 8.820312 3 3 8.820312 3 16 C 3 22.136719 7.257812 27.28125 12.976562 28.644531 C 12.679688 28.574219 12.386719 28.492188 12.101562 28.402344 L 12.101562 25.425781 C 12.101562 25.425781 11.613281 25.585938 10.960938 25.585938 C 9.144531 25.585938 8.386719 23.964844 8.199219 23.148438 C 8.085938 22.652344 7.785156 22.183594 7.464844 21.894531 C 7.082031 21.554688 6.902344 21.550781 6.898438 21.433594 C 6.894531 21.191406 7.230469 21.199219 7.386719 21.199219 C 8.199219 21.199219 8.816406 22.066406 9.101562 22.511719 C 9.808594 23.613281 10.570312 23.800781 10.960938 23.800781 C 11.449219 23.800781 11.871094 23.726562 12.160156 23.585938 C 12.296875 22.644531 12.714844 21.800781 13.398438 21.199219 C 10.351562 20.589844 8.199219 18.84375 8.199219 16 C 8.199219 14.535156 8.789062 13.191406 9.765625 12.105469 C 9.667969 11.820312 9.5 11.246094 9.5 10.3125 C 9.5 9.695312 9.542969 8.9375 9.824219 8.199219 C 9.824219 8.199219 11.679688 8.214844 13.425781 9.867188 C 14.234375 9.632812 15.097656 9.5 16 9.5 C 16.902344 9.5 17.765625 9.632812 18.574219 9.867188 C 20.320312 8.214844 22.175781 8.199219 22.175781 8.199219 C 22.457031 8.9375 22.5 9.695312 22.5 10.3125 C 22.5 11.320312 22.367188 11.90625 22.285156 12.160156 C 23.234375 13.238281 23.800781 14.5625 23.800781 16 C 23.800781 18.84375 21.648438 20.589844 18.601562 21.199219 C 19.414062 21.914062 19.898438 22.957031 19.898438 24.125 L 19.898438 28.402344 C 19.613281 28.492188 19.320312 28.574219 19.023438 28.644531 C 24.742188 27.28125 29 22.136719 29 16 C 29 8.820312 23.179688 3 16 3 Z M 16.90625 28.964844 C 16.605469 28.984375 16.304688 29 16 29 C 16.304688 29 16.605469 28.984375 16.90625 28.964844 Z M 18.894531 28.671875 C 18.3125 28.804688 17.714844 28.898438 17.105469 28.949219 C 17.714844 28.898438 18.3125 28.804688 18.894531 28.671875 Z M 16 29 C 15.695312 29 15.394531 28.984375 15.09375 28.964844 C 15.394531 28.984375 15.695312 29 16 29 Z M 14.894531 28.949219 C 14.285156 28.898438 13.6875 28.804688 13.105469 28.671875 C 13.6875 28.804688 14.285156 28.898438 14.894531 28.949219 Z M 14.894531 28.949219 "/>
</g>
</svg>
