<?xml version="1.0" encoding="UTF-8"?>
<svg xmlns="http://www.w3.org/2000/svg" xmlns:xlink="http://www.w3.org/1999/xlink" viewBox="0 0 32 32" width="32px" height="32px">
<g id="surface90817412">
<path style=" stroke:none;fill-rule:nonzero;fill:rgb(98.823529%,91.764706%,97.647059%);fill-opacity:1;" d="M 25.332031 4 L 6.667969 4 C 5.191406 4 4 5.191406 4 6.667969 L 4 25.332031 C 4 26.808594 5.191406 28 6.667969 28 L 25.332031 28 C 26.808594 28 28 26.808594 28 25.332031 L 28 6.667969 C 28 5.191406 26.808594 4 25.332031 4 Z M 12 22.667969 L 8.636719 22.667969 L 8.636719 13.332031 L 12 13.332031 Z M 10.257812 11.621094 C 9.230469 11.621094 8.542969 10.9375 8.542969 10.023438 C 8.542969 9.109375 9.230469 8.421875 10.371094 8.421875 C 11.398438 8.421875 12.085938 9.109375 12.085938 10.023438 C 12.085938 10.9375 11.402344 11.621094 10.257812 11.621094 Z M 24 22.667969 L 20.742188 22.667969 L 20.742188 17.566406 C 20.742188 16.15625 19.875 15.828125 19.550781 15.828125 C 19.226562 15.828125 18.140625 16.046875 18.140625 17.566406 C 18.140625 17.78125 18.140625 22.667969 18.140625 22.667969 L 14.777344 22.667969 L 14.777344 13.332031 L 18.140625 13.332031 L 18.140625 14.636719 C 18.574219 13.875 19.441406 13.332031 21.070312 13.332031 C 22.699219 13.332031 24 14.636719 24 17.566406 Z M 24 22.667969 "/>
</g>
</svg>
