<svg xmlns="http://www.w3.org/2000/svg" version="1.1" xmlns:xlink="http://www.w3.org/1999/xlink" xmlns:svgjs="http://svgjs.com/svgjs" width="1368" height="768" preserveAspectRatio="none" viewBox="0 0 1368 768"><g mask="url(&quot;#SvgjsMask1011&quot;)" fill="none"><rect width="1368" height="768" x="0" y="0" fill="rgba(3, 21, 40, 1)"></rect><path d="M9.51 -12.31L74.46 25.19L74.46 100.19L9.51 137.69L-55.44 100.19L-55.44 25.19zM9.51 212.69L74.46 250.19L74.46 325.19L9.51 362.69L-55.44 325.19L-55.44 250.19zM74.46 550.19L139.42 587.69L139.42 662.69L74.46 700.19L9.51 662.69L9.51 587.69zM74.46 775.19L139.42 812.69L139.42 887.69L74.46 925.19L9.51 887.69L9.51 812.69zM139.42 212.69L204.37 250.19L204.37 325.19L139.42 362.69L74.46 325.19L74.46 250.19zM204.37 550.19L269.32 587.69L269.32 662.69L204.37 700.19L139.42 662.69L139.42 587.69zM139.42 662.69L204.37 700.19L204.37 775.19L139.42 812.69L74.46 775.19L74.46 700.19zM334.28 100.19L399.23 137.69L399.23 212.69L334.28 250.19L269.32 212.69L269.32 137.69zM334.28 325.19L399.23 362.69L399.23 437.69L334.28 475.19L269.32 437.69L269.32 362.69zM269.32 437.69L334.28 475.19L334.28 550.19L269.32 587.69L204.37 550.19L204.37 475.19zM269.32 662.69L334.28 700.19L334.28 775.19L269.32 812.69L204.37 775.19L204.37 700.19zM399.23 -12.31L464.19 25.19L464.19 100.19L399.23 137.69L334.28 100.19L334.28 25.19zM529.14 -12.31L594.09 25.19L594.09 100.19L529.14 137.69L464.19 100.19L464.19 25.19zM594.09 325.19L659.05 362.69L659.05 437.69L594.09 475.19L529.14 437.69L529.14 362.69zM594.09 550.19L659.05 587.69L659.05 662.69L594.09 700.19L529.14 662.69L529.14 587.69zM724 775.19L788.96 812.69L788.96 887.69L724 925.19L659.05 887.69L659.05 812.69zM853.91 775.19L918.86 812.69L918.86 887.69L853.91 925.19L788.95 887.69L788.95 812.69zM983.82 100.19L1048.77 137.69L1048.77 212.69L983.82 250.19L918.86 212.69L918.86 137.69zM983.82 775.19L1048.77 812.69L1048.77 887.69L983.82 925.19L918.86 887.69L918.86 812.69zM1048.77 -12.31L1113.72 25.19L1113.72 100.19L1048.77 137.69L983.82 100.19L983.82 25.19zM1048.77 212.69L1113.72 250.19L1113.72 325.19L1048.77 362.69L983.82 325.19L983.82 250.19zM1113.72 325.19L1178.68 362.69L1178.68 437.69L1113.72 475.19L1048.77 437.69L1048.77 362.69zM1048.77 437.69L1113.72 475.19L1113.72 550.19L1048.77 587.69L983.82 550.19L983.82 475.19zM1178.68 -12.31L1243.63 25.19L1243.63 100.19L1178.68 137.69L1113.72 100.19L1113.72 25.19zM1178.68 437.69L1243.63 475.19L1243.63 550.19L1178.68 587.69L1113.72 550.19L1113.72 475.19zM1243.63 775.19L1308.58 812.69L1308.58 887.69L1243.63 925.19L1178.68 887.69L1178.68 812.69zM1373.54 100.19L1438.49 137.69L1438.49 212.69L1373.54 250.19L1308.59 212.69L1308.59 137.69zM1373.54 325.19L1438.49 362.69L1438.49 437.69L1373.54 475.19L1308.59 437.69L1308.59 362.69zM1373.54 550.19L1438.49 587.69L1438.49 662.69L1373.54 700.19L1308.59 662.69L1308.59 587.69zM1308.59 662.69L1373.54 700.19L1373.54 775.19L1308.59 812.69L1243.63 775.19L1243.63 700.19z" stroke="#03305d" stroke-width="2"></path><path d="M2.01 -12.31 a7.5 7.5 0 1 0 15 0 a7.5 7.5 0 1 0 -15 0zM66.96 25.19 a7.5 7.5 0 1 0 15 0 a7.5 7.5 0 1 0 -15 0zM66.96 100.19 a7.5 7.5 0 1 0 15 0 a7.5 7.5 0 1 0 -15 0zM2.01 137.69 a7.5 7.5 0 1 0 15 0 a7.5 7.5 0 1 0 -15 0zM-62.94 100.19 a7.5 7.5 0 1 0 15 0 a7.5 7.5 0 1 0 -15 0zM-62.94 25.19 a7.5 7.5 0 1 0 15 0 a7.5 7.5 0 1 0 -15 0zM2.01 212.69 a7.5 7.5 0 1 0 15 0 a7.5 7.5 0 1 0 -15 0zM66.96 250.19 a7.5 7.5 0 1 0 15 0 a7.5 7.5 0 1 0 -15 0zM66.96 325.19 a7.5 7.5 0 1 0 15 0 a7.5 7.5 0 1 0 -15 0zM2.01 362.69 a7.5 7.5 0 1 0 15 0 a7.5 7.5 0 1 0 -15 0zM-62.94 325.19 a7.5 7.5 0 1 0 15 0 a7.5 7.5 0 1 0 -15 0zM-62.94 250.19 a7.5 7.5 0 1 0 15 0 a7.5 7.5 0 1 0 -15 0zM66.96 550.19 a7.5 7.5 0 1 0 15 0 a7.5 7.5 0 1 0 -15 0zM131.92 587.69 a7.5 7.5 0 1 0 15 0 a7.5 7.5 0 1 0 -15 0zM131.92 662.69 a7.5 7.5 0 1 0 15 0 a7.5 7.5 0 1 0 -15 0zM66.96 700.19 a7.5 7.5 0 1 0 15 0 a7.5 7.5 0 1 0 -15 0zM2.01 662.69 a7.5 7.5 0 1 0 15 0 a7.5 7.5 0 1 0 -15 0zM2.01 587.69 a7.5 7.5 0 1 0 15 0 a7.5 7.5 0 1 0 -15 0zM66.96 775.19 a7.5 7.5 0 1 0 15 0 a7.5 7.5 0 1 0 -15 0zM131.92 812.69 a7.5 7.5 0 1 0 15 0 a7.5 7.5 0 1 0 -15 0zM131.92 887.69 a7.5 7.5 0 1 0 15 0 a7.5 7.5 0 1 0 -15 0zM66.96 925.19 a7.5 7.5 0 1 0 15 0 a7.5 7.5 0 1 0 -15 0zM2.01 887.69 a7.5 7.5 0 1 0 15 0 a7.5 7.5 0 1 0 -15 0zM2.01 812.69 a7.5 7.5 0 1 0 15 0 a7.5 7.5 0 1 0 -15 0zM131.92 212.69 a7.5 7.5 0 1 0 15 0 a7.5 7.5 0 1 0 -15 0zM196.87 250.19 a7.5 7.5 0 1 0 15 0 a7.5 7.5 0 1 0 -15 0zM196.87 325.19 a7.5 7.5 0 1 0 15 0 a7.5 7.5 0 1 0 -15 0zM131.92 362.69 a7.5 7.5 0 1 0 15 0 a7.5 7.5 0 1 0 -15 0zM196.87 550.19 a7.5 7.5 0 1 0 15 0 a7.5 7.5 0 1 0 -15 0zM261.82 587.69 a7.5 7.5 0 1 0 15 0 a7.5 7.5 0 1 0 -15 0zM261.82 662.69 a7.5 7.5 0 1 0 15 0 a7.5 7.5 0 1 0 -15 0zM196.87 700.19 a7.5 7.5 0 1 0 15 0 a7.5 7.5 0 1 0 -15 0zM196.87 775.19 a7.5 7.5 0 1 0 15 0 a7.5 7.5 0 1 0 -15 0zM326.78 100.19 a7.5 7.5 0 1 0 15 0 a7.5 7.5 0 1 0 -15 0zM391.73 137.69 a7.5 7.5 0 1 0 15 0 a7.5 7.5 0 1 0 -15 0zM391.73 212.69 a7.5 7.5 0 1 0 15 0 a7.5 7.5 0 1 0 -15 0zM326.78 250.19 a7.5 7.5 0 1 0 15 0 a7.5 7.5 0 1 0 -15 0zM261.82 212.69 a7.5 7.5 0 1 0 15 0 a7.5 7.5 0 1 0 -15 0zM261.82 137.69 a7.5 7.5 0 1 0 15 0 a7.5 7.5 0 1 0 -15 0zM326.78 325.19 a7.5 7.5 0 1 0 15 0 a7.5 7.5 0 1 0 -15 0zM391.73 362.69 a7.5 7.5 0 1 0 15 0 a7.5 7.5 0 1 0 -15 0zM391.73 437.69 a7.5 7.5 0 1 0 15 0 a7.5 7.5 0 1 0 -15 0zM326.78 475.19 a7.5 7.5 0 1 0 15 0 a7.5 7.5 0 1 0 -15 0zM261.82 437.69 a7.5 7.5 0 1 0 15 0 a7.5 7.5 0 1 0 -15 0zM261.82 362.69 a7.5 7.5 0 1 0 15 0 a7.5 7.5 0 1 0 -15 0zM326.78 550.19 a7.5 7.5 0 1 0 15 0 a7.5 7.5 0 1 0 -15 0zM196.87 475.19 a7.5 7.5 0 1 0 15 0 a7.5 7.5 0 1 0 -15 0zM326.78 700.19 a7.5 7.5 0 1 0 15 0 a7.5 7.5 0 1 0 -15 0zM326.78 775.19 a7.5 7.5 0 1 0 15 0 a7.5 7.5 0 1 0 -15 0zM261.82 812.69 a7.5 7.5 0 1 0 15 0 a7.5 7.5 0 1 0 -15 0zM391.73 -12.31 a7.5 7.5 0 1 0 15 0 a7.5 7.5 0 1 0 -15 0zM456.69 25.19 a7.5 7.5 0 1 0 15 0 a7.5 7.5 0 1 0 -15 0zM456.69 100.19 a7.5 7.5 0 1 0 15 0 a7.5 7.5 0 1 0 -15 0zM326.78 25.19 a7.5 7.5 0 1 0 15 0 a7.5 7.5 0 1 0 -15 0zM521.64 -12.31 a7.5 7.5 0 1 0 15 0 a7.5 7.5 0 1 0 -15 0zM586.59 25.19 a7.5 7.5 0 1 0 15 0 a7.5 7.5 0 1 0 -15 0zM586.59 100.19 a7.5 7.5 0 1 0 15 0 a7.5 7.5 0 1 0 -15 0zM521.64 137.69 a7.5 7.5 0 1 0 15 0 a7.5 7.5 0 1 0 -15 0zM586.59 325.19 a7.5 7.5 0 1 0 15 0 a7.5 7.5 0 1 0 -15 0zM651.55 362.69 a7.5 7.5 0 1 0 15 0 a7.5 7.5 0 1 0 -15 0zM651.55 437.69 a7.5 7.5 0 1 0 15 0 a7.5 7.5 0 1 0 -15 0zM586.59 475.19 a7.5 7.5 0 1 0 15 0 a7.5 7.5 0 1 0 -15 0zM521.64 437.69 a7.5 7.5 0 1 0 15 0 a7.5 7.5 0 1 0 -15 0zM521.64 362.69 a7.5 7.5 0 1 0 15 0 a7.5 7.5 0 1 0 -15 0zM586.59 550.19 a7.5 7.5 0 1 0 15 0 a7.5 7.5 0 1 0 -15 0zM651.55 587.69 a7.5 7.5 0 1 0 15 0 a7.5 7.5 0 1 0 -15 0zM651.55 662.69 a7.5 7.5 0 1 0 15 0 a7.5 7.5 0 1 0 -15 0zM586.59 700.19 a7.5 7.5 0 1 0 15 0 a7.5 7.5 0 1 0 -15 0zM521.64 662.69 a7.5 7.5 0 1 0 15 0 a7.5 7.5 0 1 0 -15 0zM521.64 587.69 a7.5 7.5 0 1 0 15 0 a7.5 7.5 0 1 0 -15 0zM716.5 775.19 a7.5 7.5 0 1 0 15 0 a7.5 7.5 0 1 0 -15 0zM781.46 812.69 a7.5 7.5 0 1 0 15 0 a7.5 7.5 0 1 0 -15 0zM781.46 887.69 a7.5 7.5 0 1 0 15 0 a7.5 7.5 0 1 0 -15 0zM716.5 925.19 a7.5 7.5 0 1 0 15 0 a7.5 7.5 0 1 0 -15 0zM651.55 887.69 a7.5 7.5 0 1 0 15 0 a7.5 7.5 0 1 0 -15 0zM651.55 812.69 a7.5 7.5 0 1 0 15 0 a7.5 7.5 0 1 0 -15 0zM846.41 775.19 a7.5 7.5 0 1 0 15 0 a7.5 7.5 0 1 0 -15 0zM911.36 812.69 a7.5 7.5 0 1 0 15 0 a7.5 7.5 0 1 0 -15 0zM911.36 887.69 a7.5 7.5 0 1 0 15 0 a7.5 7.5 0 1 0 -15 0zM846.41 925.19 a7.5 7.5 0 1 0 15 0 a7.5 7.5 0 1 0 -15 0zM781.45 887.69 a7.5 7.5 0 1 0 15 0 a7.5 7.5 0 1 0 -15 0zM781.45 812.69 a7.5 7.5 0 1 0 15 0 a7.5 7.5 0 1 0 -15 0zM976.32 100.19 a7.5 7.5 0 1 0 15 0 a7.5 7.5 0 1 0 -15 0zM1041.27 137.69 a7.5 7.5 0 1 0 15 0 a7.5 7.5 0 1 0 -15 0zM1041.27 212.69 a7.5 7.5 0 1 0 15 0 a7.5 7.5 0 1 0 -15 0zM976.32 250.19 a7.5 7.5 0 1 0 15 0 a7.5 7.5 0 1 0 -15 0zM911.36 212.69 a7.5 7.5 0 1 0 15 0 a7.5 7.5 0 1 0 -15 0zM911.36 137.69 a7.5 7.5 0 1 0 15 0 a7.5 7.5 0 1 0 -15 0zM976.32 775.19 a7.5 7.5 0 1 0 15 0 a7.5 7.5 0 1 0 -15 0zM1041.27 812.69 a7.5 7.5 0 1 0 15 0 a7.5 7.5 0 1 0 -15 0zM1041.27 887.69 a7.5 7.5 0 1 0 15 0 a7.5 7.5 0 1 0 -15 0zM976.32 925.19 a7.5 7.5 0 1 0 15 0 a7.5 7.5 0 1 0 -15 0zM1041.27 -12.31 a7.5 7.5 0 1 0 15 0 a7.5 7.5 0 1 0 -15 0zM1106.22 25.19 a7.5 7.5 0 1 0 15 0 a7.5 7.5 0 1 0 -15 0zM1106.22 100.19 a7.5 7.5 0 1 0 15 0 a7.5 7.5 0 1 0 -15 0zM976.32 25.19 a7.5 7.5 0 1 0 15 0 a7.5 7.5 0 1 0 -15 0zM1106.22 250.19 a7.5 7.5 0 1 0 15 0 a7.5 7.5 0 1 0 -15 0zM1106.22 325.19 a7.5 7.5 0 1 0 15 0 a7.5 7.5 0 1 0 -15 0zM1041.27 362.69 a7.5 7.5 0 1 0 15 0 a7.5 7.5 0 1 0 -15 0zM976.32 325.19 a7.5 7.5 0 1 0 15 0 a7.5 7.5 0 1 0 -15 0zM1171.18 362.69 a7.5 7.5 0 1 0 15 0 a7.5 7.5 0 1 0 -15 0zM1171.18 437.69 a7.5 7.5 0 1 0 15 0 a7.5 7.5 0 1 0 -15 0zM1106.22 475.19 a7.5 7.5 0 1 0 15 0 a7.5 7.5 0 1 0 -15 0zM1041.27 437.69 a7.5 7.5 0 1 0 15 0 a7.5 7.5 0 1 0 -15 0zM1106.22 550.19 a7.5 7.5 0 1 0 15 0 a7.5 7.5 0 1 0 -15 0zM1041.27 587.69 a7.5 7.5 0 1 0 15 0 a7.5 7.5 0 1 0 -15 0zM976.32 550.19 a7.5 7.5 0 1 0 15 0 a7.5 7.5 0 1 0 -15 0zM976.32 475.19 a7.5 7.5 0 1 0 15 0 a7.5 7.5 0 1 0 -15 0zM1171.18 -12.31 a7.5 7.5 0 1 0 15 0 a7.5 7.5 0 1 0 -15 0zM1236.13 25.19 a7.5 7.5 0 1 0 15 0 a7.5 7.5 0 1 0 -15 0zM1236.13 100.19 a7.5 7.5 0 1 0 15 0 a7.5 7.5 0 1 0 -15 0zM1171.18 137.69 a7.5 7.5 0 1 0 15 0 a7.5 7.5 0 1 0 -15 0zM1236.13 475.19 a7.5 7.5 0 1 0 15 0 a7.5 7.5 0 1 0 -15 0zM1236.13 550.19 a7.5 7.5 0 1 0 15 0 a7.5 7.5 0 1 0 -15 0zM1171.18 587.69 a7.5 7.5 0 1 0 15 0 a7.5 7.5 0 1 0 -15 0zM1236.13 775.19 a7.5 7.5 0 1 0 15 0 a7.5 7.5 0 1 0 -15 0zM1301.08 812.69 a7.5 7.5 0 1 0 15 0 a7.5 7.5 0 1 0 -15 0zM1301.08 887.69 a7.5 7.5 0 1 0 15 0 a7.5 7.5 0 1 0 -15 0zM1236.13 925.19 a7.5 7.5 0 1 0 15 0 a7.5 7.5 0 1 0 -15 0zM1171.18 887.69 a7.5 7.5 0 1 0 15 0 a7.5 7.5 0 1 0 -15 0zM1171.18 812.69 a7.5 7.5 0 1 0 15 0 a7.5 7.5 0 1 0 -15 0zM1366.04 100.19 a7.5 7.5 0 1 0 15 0 a7.5 7.5 0 1 0 -15 0zM1430.99 137.69 a7.5 7.5 0 1 0 15 0 a7.5 7.5 0 1 0 -15 0zM1430.99 212.69 a7.5 7.5 0 1 0 15 0 a7.5 7.5 0 1 0 -15 0zM1366.04 250.19 a7.5 7.5 0 1 0 15 0 a7.5 7.5 0 1 0 -15 0zM1301.09 212.69 a7.5 7.5 0 1 0 15 0 a7.5 7.5 0 1 0 -15 0zM1301.09 137.69 a7.5 7.5 0 1 0 15 0 a7.5 7.5 0 1 0 -15 0zM1366.04 325.19 a7.5 7.5 0 1 0 15 0 a7.5 7.5 0 1 0 -15 0zM1430.99 362.69 a7.5 7.5 0 1 0 15 0 a7.5 7.5 0 1 0 -15 0zM1430.99 437.69 a7.5 7.5 0 1 0 15 0 a7.5 7.5 0 1 0 -15 0zM1366.04 475.19 a7.5 7.5 0 1 0 15 0 a7.5 7.5 0 1 0 -15 0zM1301.09 437.69 a7.5 7.5 0 1 0 15 0 a7.5 7.5 0 1 0 -15 0zM1301.09 362.69 a7.5 7.5 0 1 0 15 0 a7.5 7.5 0 1 0 -15 0zM1366.04 550.19 a7.5 7.5 0 1 0 15 0 a7.5 7.5 0 1 0 -15 0zM1430.99 587.69 a7.5 7.5 0 1 0 15 0 a7.5 7.5 0 1 0 -15 0zM1430.99 662.69 a7.5 7.5 0 1 0 15 0 a7.5 7.5 0 1 0 -15 0zM1366.04 700.19 a7.5 7.5 0 1 0 15 0 a7.5 7.5 0 1 0 -15 0zM1301.09 662.69 a7.5 7.5 0 1 0 15 0 a7.5 7.5 0 1 0 -15 0zM1301.09 587.69 a7.5 7.5 0 1 0 15 0 a7.5 7.5 0 1 0 -15 0zM1366.04 775.19 a7.5 7.5 0 1 0 15 0 a7.5 7.5 0 1 0 -15 0zM1301.09 812.69 a7.5 7.5 0 1 0 15 0 a7.5 7.5 0 1 0 -15 0zM1236.13 700.19 a7.5 7.5 0 1 0 15 0 a7.5 7.5 0 1 0 -15 0z" fill="#03305d"></path><path d="M22.79 -31.5L66.09 -6.5L66.09 43.5L22.79 68.5L-20.51 43.5L-20.51 -6.5zM66.09 43.5L109.4 68.5L109.4 118.5L66.09 143.5L22.79 118.5L22.79 68.5zM66.09 193.5L109.4 218.5L109.4 268.5L66.09 293.5L22.79 268.5L22.79 218.5zM22.79 268.5L66.09 293.5L66.09 343.5L22.79 368.5L-20.51 343.5L-20.51 293.5zM22.79 418.5L66.09 443.5L66.09 493.5L22.79 518.5L-20.51 493.5L-20.51 443.5zM22.79 718.5L66.09 743.5L66.09 793.5L22.79 818.5L-20.51 793.5L-20.51 743.5zM152.7 43.5L196 68.5L196 118.5L152.7 143.5L109.4 118.5L109.4 68.5zM109.4 568.5L152.7 593.5L152.7 643.5L109.4 668.5L66.09 643.5L66.09 593.5zM239.3 193.5L282.61 218.5L282.61 268.5L239.3 293.5L196 268.5L196 218.5zM196 418.5L239.3 443.5L239.3 493.5L196 518.5L152.7 493.5L152.7 443.5zM325.91 343.5L369.21 368.5L369.21 418.5L325.91 443.5L282.61 418.5L282.61 368.5zM325.91 493.5L369.21 518.5L369.21 568.5L325.91 593.5L282.61 568.5L282.61 518.5zM282.61 568.5L325.91 593.5L325.91 643.5L282.61 668.5L239.3 643.5L239.3 593.5zM325.91 643.5L369.21 668.5L369.21 718.5L325.91 743.5L282.61 718.5L282.61 668.5zM282.61 718.5L325.91 743.5L325.91 793.5L282.61 818.5L239.3 793.5L239.3 743.5zM412.51 193.5L455.82 218.5L455.82 268.5L412.51 293.5L369.21 268.5L369.21 218.5zM412.51 343.5L455.82 368.5L455.82 418.5L412.51 443.5L369.21 418.5L369.21 368.5zM369.21 418.5L412.51 443.5L412.51 493.5L369.21 518.5L325.91 493.5L325.91 443.5zM412.51 493.5L455.82 518.5L455.82 568.5L412.51 593.5L369.21 568.5L369.21 518.5zM455.82 -31.5L499.12 -6.5L499.12 43.5L455.82 68.5L412.51 43.5L412.51 -6.5zM499.12 43.5L542.42 68.5L542.42 118.5L499.12 143.5L455.82 118.5L455.82 68.5zM455.82 118.5L499.12 143.5L499.12 193.5L455.82 218.5L412.51 193.5L412.51 143.5zM499.12 493.5L542.42 518.5L542.42 568.5L499.12 593.5L455.82 568.5L455.82 518.5zM499.12 643.5L542.42 668.5L542.42 718.5L499.12 743.5L455.82 718.5L455.82 668.5zM585.72 43.5L629.02 68.5L629.02 118.5L585.72 143.5L542.42 118.5L542.42 68.5zM585.72 343.5L629.02 368.5L629.02 418.5L585.72 443.5L542.42 418.5L542.42 368.5zM542.42 418.5L585.72 443.5L585.72 493.5L542.42 518.5L499.12 493.5L499.12 443.5zM585.72 493.5L629.02 518.5L629.02 568.5L585.72 593.5L542.42 568.5L542.42 518.5zM585.72 643.5L629.02 668.5L629.02 718.5L585.72 743.5L542.42 718.5L542.42 668.5zM629.02 268.5L672.33 293.5L672.33 343.5L629.02 368.5L585.72 343.5L585.72 293.5zM629.02 418.5L672.33 443.5L672.33 493.5L629.02 518.5L585.72 493.5L585.72 443.5zM715.63 268.5L758.93 293.5L758.93 343.5L715.63 368.5L672.33 343.5L672.33 293.5zM802.24 -31.5L845.54 -6.5L845.54 43.5L802.24 68.5L758.93 43.5L758.93 -6.5zM845.54 343.5L888.84 368.5L888.84 418.5L845.54 443.5L802.24 418.5L802.24 368.5zM802.24 718.5L845.54 743.5L845.54 793.5L802.24 818.5L758.93 793.5L758.93 743.5zM888.84 268.5L932.14 293.5L932.14 343.5L888.84 368.5L845.54 343.5L845.54 293.5zM888.84 418.5L932.14 443.5L932.14 493.5L888.84 518.5L845.54 493.5L845.54 443.5zM975.45 118.5L1018.75 143.5L1018.75 193.5L975.45 218.5L932.14 193.5L932.14 143.5zM1018.75 343.5L1062.05 368.5L1062.05 418.5L1018.75 443.5L975.45 418.5L975.45 368.5zM975.45 418.5L1018.75 443.5L1018.75 493.5L975.45 518.5L932.14 493.5L932.14 443.5zM1018.75 493.5L1062.05 518.5L1062.05 568.5L1018.75 593.5L975.45 568.5L975.45 518.5zM975.45 718.5L1018.75 743.5L1018.75 793.5L975.45 818.5L932.14 793.5L932.14 743.5zM1062.05 -31.5L1105.35 -6.5L1105.35 43.5L1062.05 68.5L1018.75 43.5L1018.75 -6.5zM1105.35 193.5L1148.65 218.5L1148.65 268.5L1105.35 293.5L1062.05 268.5L1062.05 218.5zM1062.05 268.5L1105.35 293.5L1105.35 343.5L1062.05 368.5L1018.75 343.5L1018.75 293.5zM1105.35 343.5L1148.65 368.5L1148.65 418.5L1105.35 443.5L1062.05 418.5L1062.05 368.5zM1062.05 568.5L1105.35 593.5L1105.35 643.5L1062.05 668.5L1018.75 643.5L1018.75 593.5zM1105.35 643.5L1148.65 668.5L1148.65 718.5L1105.35 743.5L1062.05 718.5L1062.05 668.5zM1191.96 493.5L1235.26 518.5L1235.26 568.5L1191.96 593.5L1148.65 568.5L1148.65 518.5zM1278.56 43.5L1321.87 68.5L1321.87 118.5L1278.56 143.5L1235.26 118.5L1235.26 68.5zM1278.56 193.5L1321.87 218.5L1321.87 268.5L1278.56 293.5L1235.26 268.5L1235.26 218.5zM1235.26 268.5L1278.56 293.5L1278.56 343.5L1235.26 368.5L1191.96 343.5L1191.96 293.5zM1235.26 718.5L1278.56 743.5L1278.56 793.5L1235.26 818.5L1191.96 793.5L1191.96 743.5zM1365.17 343.5L1408.47 368.5L1408.47 418.5L1365.17 443.5L1321.87 418.5L1321.87 368.5zM1321.87 718.5L1365.17 743.5L1365.17 793.5L1321.87 818.5L1278.56 793.5L1278.56 743.5z" stroke="rgba(6, 80, 156, 0.93)" stroke-width="2"></path></g><defs><mask id="SvgjsMask1011"><rect width="1368" height="768" fill="#ffffff"></rect></mask></defs></svg>