<?xml version="1.0" encoding="UTF-8"?>
<svg xmlns="http://www.w3.org/2000/svg" xmlns:xlink="http://www.w3.org/1999/xlink" viewBox="0 0 32 32" width="32px" height="32px">
<g id="surface90816083">
<path style=" stroke:none;fill-rule:nonzero;fill:rgb(98.823529%,90.980393%,97.647059%);fill-opacity:1;" d="M 22.667969 28 L 26.667969 28 C 28.867188 28 30.667969 26.199219 30.667969 24 L 30.667969 13.226562 L 22.667969 19.464844 Z M 26 4 C 24.945312 4 23.945312 4.347656 23.121094 4.988281 L 22.667969 5.347656 L 22.667969 16.09375 L 30.667969 9.839844 L 30.667969 8.667969 C 30.667969 6.09375 28.574219 4 26 4 Z M 12 7.425781 L 12 18.171875 L 16 21.292969 L 20 18.171875 L 20 7.425781 L 16 10.546875 Z M 1.332031 24 C 1.332031 26.199219 3.132812 28 5.332031 28 L 9.332031 28 L 9.332031 19.464844 L 1.332031 13.226562 Z M 6 4 C 3.425781 4 1.332031 6.09375 1.332031 8.667969 L 1.332031 9.839844 L 9.332031 16.09375 L 9.332031 5.347656 L 8.878906 4.988281 C 8.054688 4.347656 7.054688 4 6 4 Z M 6 4 "/>
</g>
</svg>
